<svg xmlns="http://www.w3.org/2000/svg" width="144" height="95" fill="none">
  <path stroke="#fff" opacity=".04" d="M16.28 23.459c0-11.214 9.091-20.305 20.305-20.305h78.634c10.901 0 16.794 12.776 9.717 21.067a12.74 12.74 0 0 1-1.515 1.502l-.681.57a23.378 23.378 0 0 1-12.72 5.342L98.696 32.75H78.873A42.064 42.064 0 0 0 48.15 46.083l-5.421 5.796a14.493 14.493 0 0 0-1.605 2.06c-7.284 11.327-24.843 6.169-24.843-7.298V23.459ZM127.719 71.179c0 11.214-9.09 20.304-20.304 20.304H28.781c-10.901 0-16.794-12.775-9.717-21.067.462-.542.969-1.044 1.515-1.501l.681-.57a23.38 23.38 0 0 1 12.72-5.343l11.324-1.114h19.823A42.064 42.064 0 0 0 95.85 48.555l5.421-5.797a14.5 14.5 0 0 0 1.605-2.06c7.284-11.327 24.843-6.168 24.843 7.298V71.18Z"/>
</svg>
