<svg xmlns="http://www.w3.org/2000/svg" aria-hidden="true" style="position:absolute;width:0;height:0;overflow:hidden">
    <defs>
        <symbol id="linkdin" viewBox="0 0 32 32">
            <path fill="none" stroke="#fff" stroke-width=".64" d="M31.68 16c0 8.66-7.02 15.68-15.68 15.68S.32 24.66.32 16 7.34.32 16 .32 31.68 7.34 31.68 16z" opacity=".4" style="stroke:var(--color1, #fff)"/>
            <path fill="none" stroke="#fff" stroke-linecap="round" stroke-linejoin="round" stroke-width=".64" d="M18.134 13.867a3.2 3.2 0 0 1 3.2 3.2V20.8h-2.133v-3.733a1.066 1.066 0 1 0-2.132 0V20.8h-2.133v-3.733a3.2 3.2 0 0 1 3.2-3.2zM12.801 14.4h-2.133v6.4h2.133v-6.4zM11.734 12.8a1.067 1.067 0 1 0 0-2.135 1.067 1.067 0 0 0 0 2.135z" style="stroke:var(--color1, #fff)"/>
        </symbol>
        <symbol id="instagram" viewBox="0 0 32 32">
            <path fill="none" stroke="#fff" stroke-width=".64" d="M31.68 16c0 8.66-7.02 15.68-15.68 15.68S.32 24.66.32 16 7.34.32 16 .32 31.68 7.34 31.68 16z" opacity=".4" style="stroke:var(--color1, #fff)"/>
            <path fill="none" stroke="#fff" stroke-linecap="round" stroke-linejoin="round" stroke-width=".64" d="M18.667 10.667h-5.333a2.667 2.667 0 0 0-2.667 2.667v5.333a2.667 2.667 0 0 0 2.667 2.667h5.333a2.667 2.667 0 0 0 2.667-2.667v-5.333a2.667 2.667 0 0 0-2.667-2.667z" style="stroke:var(--color1, #fff)"/>
            <path fill="none" stroke="#fff" stroke-linecap="round" stroke-linejoin="round" stroke-width=".64" d="M18.133 15.664a2.141 2.141 0 0 1-1.151 2.218 2.134 2.134 0 1 1 1.151-2.218zM18.933 13.067h.006" style="stroke:var(--color1, #fff)"/>
        </symbol>
        <symbol id="facebook" viewBox="0 0 32 32">
            <path fill="none" stroke="#fff" stroke-width=".64" d="M31.68 16c0 8.66-7.02 15.68-15.68 15.68S.32 24.66.32 16 7.34.32 16 .32 31.68 7.34 31.68 16z" opacity=".4" style="stroke:var(--color1, #fff)"/>
            <path fill="none" stroke="#fff" stroke-linecap="round" stroke-linejoin="round" stroke-width=".64" d="M18.667 10.667h-1.6a2.668 2.668 0 0 0-2.667 2.667v1.6h-1.6v2.133h1.6v4.267h2.133v-4.267h1.6l.533-2.133h-2.133v-1.6a.534.534 0 0 1 .533-.533h1.6v-2.133z" style="stroke:var(--color1, #fff)"/>
        </symbol>
        <symbol id="twitter" viewBox="0 0 32 32">
            <path fill="none" stroke="#fff" stroke-width=".64" d="M31.68 16c0 8.66-7.02 15.68-15.68 15.68S.32 24.66.32 16 7.34.32 16 .32 31.68 7.34 31.68 16z" opacity=".4" style="stroke:var(--color1, #fff)"/>
            <path fill="none" stroke="#fff" stroke-linecap="round" stroke-linejoin="round" stroke-width=".64" d="M21.333 11.739a5.813 5.813 0 0 1-1.675.816 2.392 2.392 0 0 0-3.78.226 2.386 2.386 0 0 0-.412 1.374v.533c-.937.024-1.866-.184-2.704-.605s-1.558-1.044-2.096-1.811c0 0-2.133 4.8 2.667 6.933A6.21 6.21 0 0 1 9.6 20.272c4.8 2.667 10.667 0 10.667-6.133a2.35 2.35 0 0 0-.043-.443 4.124 4.124 0 0 0 1.109-1.957v0z" style="stroke:var(--color1, #fff)"/>
        </symbol>
        <symbol id="mail" viewBox="0 0 40 32">
            <path fill="none" stroke="#fff" stroke-linecap="round" stroke-linejoin="round" stroke-width="4" d="M5.5 2h28A3.51 3.51 0 0 1 37 5.5v21a3.51 3.51 0 0 1-3.5 3.5h-28A3.51 3.51 0 0 1 2 26.5v-21A3.51 3.51 0 0 1 5.5 2z" style="stroke:var(--color1, #fff)"/>
            <path fill="none" stroke="#fff" stroke-linecap="round" stroke-linejoin="round" stroke-width="4" d="M37 5.5 19.5 17.75 2 5.5" style="stroke:var(--color1, #fff)"/>
        </symbol>
        <symbol id="telephone" viewBox="0 0 32 32">
            <path fill="#fff" d="M32 12.177c0-5.069-4.124-9.193-9.193-9.193H9.193C4.124 2.984 0 7.108 0 12.177a2.718 2.718 0 0 0 2.715 2.715h2.591L3.43 19.141a11.656 11.656 0 0 0-.999 4.737v1.741a3.403 3.403 0 0 0 3.399 3.399h20.34a3.403 3.403 0 0 0 3.399-3.399v-1.741a11.66 11.66 0 0 0-.999-4.737l-1.876-4.249h2.592a2.718 2.718 0 0 0 2.715-2.715zM9.193 5.08h13.614a7.108 7.108 0 0 1 6.557 4.382h-6.04a2.829 2.829 0 0 0-2.039-.868H10.716c-.801 0-1.526.335-2.042.871l-.06-.003H2.637A7.108 7.108 0 0 1 9.194 5.08zm-6.478 7.716a.62.62 0 0 1-.619-.619c0-.209.01-.415.027-.619h5.755v.809a.43.43 0 0 1-.429.429H2.714zm24.758 11.081v1.741c0 .718-.584 1.303-1.303 1.303H5.83a1.304 1.304 0 0 1-1.303-1.303v-1.741c0-1.348.276-2.657.821-3.89l2.252-5.1a2.528 2.528 0 0 0 2.375-2.52v-.935c0-.409.332-.741.741-.741h10.569c.409 0 .741.332.741.741v.935a2.528 2.528 0 0 0 2.375 2.52l2.252 5.1a9.564 9.564 0 0 1 .821 3.89zM24.55 12.796a.43.43 0 0 1-.429-.429v-.809h5.755c.018.204.027.41.027.619a.62.62 0 0 1-.619.619h-4.735z" style="fill:var(--color1, #fff)"/>
            <path fill="#fff" d="M12.34 17.115a1.16 1.16 0 1 0 0-2.318 1.16 1.16 0 0 0 0 2.318zM16 17.115a1.16 1.16 0 1 0 0-2.318 1.16 1.16 0 0 0 0 2.318zM19.66 17.115a1.16 1.16 0 1 0 0-2.318 1.16 1.16 0 0 0 0 2.318zM12.34 20.64a1.16 1.16 0 1 0 0-2.319 1.16 1.16 0 0 0 0 2.319zM16 20.64a1.16 1.16 0 1 0 0-2.319 1.16 1.16 0 0 0 0 2.319zM19.66 20.64a1.16 1.16 0 1 0 0-2.319 1.16 1.16 0 0 0 0 2.319zM12.34 24.164a1.16 1.16 0 1 0 0-2.318 1.16 1.16 0 0 0 0 2.318zM16 24.164a1.16 1.16 0 1 0 0-2.318 1.16 1.16 0 0 0 0 2.318zM19.66 24.164a1.16 1.16 0 1 0 0-2.318 1.16 1.16 0 0 0 0 2.318z" style="fill:var(--color1, #fff)"/>
        </symbol>
        <symbol id="logo-icon" viewBox="0 0 31 32">
            <path fill="#ff4b32" d="M27.593 23.09h-3.916c-.224 0-.406.181-.406.404s.182.404.406.404h3.51v.228l-5.904 1.117H9.447l-5.904-1.117v-.228H22.172a.404.404 0 1 0 0-.808h-2.616a7.84 7.84 0 0 0 2.779-3.031 4.282 4.282 0 0 0 1.619.314c2.375 0 4.307-1.926 4.307-4.293s-1.932-4.292-4.307-4.292c-.257 0-.512.023-.763.068v-.231a.94.94 0 0 0-.941-.938h-1.918c-.224 0-.406.181-.406.404s.182.404.406.404h1.918a.13.13 0 0 1 .13.13v.687H8.351v-.687a.13.13 0 0 1 .13-.13h10.344a.404.404 0 1 0 0-.808H8.481a.94.94 0 0 0-.941.938v4.88c0 .61.072 1.214.211 1.801-.66-.196-1.446-.042-2.164.447a.404.404 0 1 0 .458.667c.47-.321.964-.447 1.372-.365L5.94 21.257a.404.404 0 1 0 .675.449l1.477-2.203c.153.227.237.523.241.869s0 .002 0 .002c.005.534-.182 1.111-.527 1.626-.197.294-.43.545-.693.749a2.539 2.539 0 0 1-.571.34H5.261l-.044-.027c-.675-.449-.718-1.611-.097-2.646.115-.192.052-.44-.14-.554s-.441-.052-.556.139c-.396.659-.589 1.394-.544 2.068.025.383.126.728.291 1.02H3.138a.404.404 0 0 0-.405.404v.967c0 .194.139.361.33.397l5.963 1.128v1.196c0 .223.182.404.406.404h11.869a.405.405 0 0 0 .406-.404v-1.196l5.964-1.129a.405.405 0 0 0 .33-.397v-.967a.405.405 0 0 0-.406-.404zm-4.402-6.585v-1.912a1.677 1.677 0 0 1 2.44 1.487 1.676 1.676 0 0 1-2.507 1.451c.044-.337.067-.68.067-1.026zm-.222 1.852a2.486 2.486 0 0 0 3.472-2.277 2.486 2.486 0 0 0-3.251-2.36v-1.04a3.494 3.494 0 0 1 4.259 3.4 3.494 3.494 0 0 1-4.782 3.24c.122-.313.222-.635.302-.963zM8.351 13.12H22.38v3.385c0 1.867-.73 3.623-2.054 4.943a7.068 7.068 0 0 1-2.602 1.642h-4.715a6.127 6.127 0 0 1-.389-.151c.298-.466.411-.985.313-1.479v-.002l-.001-.002c-.129-.643-.585-1.172-1.284-1.49-.655-.298-1.455-.375-2.253-.217a3.766 3.766 0 0 0-.216.049 6.966 6.966 0 0 1-.827-3.293V13.12zm.129 9.33c.375-.56.602-1.187.653-1.796a3.27 3.27 0 0 1 .419-.112c1.032-.204 2.027.105 2.423.694l-2.606.516a.405.405 0 1 0 .157.792l2.608-.517c-.052.266-.201.532-.439.777l-.002.002a2.432 2.432 0 0 1-.334.283h-3.41c.194-.191.372-.405.529-.64zm12.414 4.328H9.836v-.726h11.058v.726zM16.421 8.079l-.018.011.018-.011zM16.403 8.09c-.011.007-.01.006 0 0z" style="fill:var(--color2, #ff4b32)"/>
            <path fill="#ff4b32" d="M17.299 4.411a2.748 2.748 0 0 0 .861-2.003c0-.958-.486-1.835-1.301-2.345a.404.404 0 1 0-.432.684c.578.362.922.983.922 1.661s-.345 1.299-.922 1.661a.407.407 0 0 0 0 .684c.578.362.922.983.922 1.661s-.345 1.299-.922 1.661l-.005.003.005-.003a.402.402 0 0 0-.127.557.406.406 0 0 0 .559.127 2.755 2.755 0 0 0 1.301-2.345c0-.769-.315-1.486-.861-2.003zm-.661 3.532c.01-.006.011-.007 0 0zm-.053.033zM19.712 4.069a.404.404 0 1 0-.432.684c.578.362.922.983.922 1.661s-.345 1.299-.922 1.661a.402.402 0 0 0-.127.557.406.406 0 0 0 .56.127c.815-.511 1.301-1.388 1.301-2.345s-.486-1.835-1.301-2.345zM13.77 4.069a.404.404 0 1 0-.432.684c.578.362.922.983.922 1.661s-.345 1.299-.922 1.661a.402.402 0 0 0-.127.557.406.406 0 0 0 .56.127c.815-.511 1.301-1.388 1.301-2.345s-.486-1.834-1.301-2.345z" style="fill:var(--color2, #ff4b32)"/>
        </symbol>
    </defs>
</svg>